 <svg xmlns="http://www.w3.org/2000/svg" id="close" viewBox="0 0 16 16">
                        <path d="M12.7674 3.23264C12.6184 3.08368 12.4163 3 12.2056 3C11.9949 3 11.7929 3.08368 11.6439 3.23264L8 6.87649L4.35615 3.23264C4.20714 3.08368 4.00508 3 3.79439 3C3.5837 3 3.38164 3.08368 3.23264 3.23264C3.08368 3.38164 3 3.5837 3 3.79439C3 4.00508 3.08368 4.20714 3.23264 4.35615L6.87649 8L3.23264 11.6439C3.08368 11.7929 3 11.9949 3 12.2056C3 12.4163 3.08368 12.6184 3.23264 12.7674C3.38164 12.9163 3.5837 13 3.79439 13C4.00508 13 4.20714 12.9163 4.35615 12.7674L8 9.12351L11.6439 12.7674C11.7929 12.9163 11.9949 13 12.2056 13C12.4163 13 12.6184 12.9163 12.7674 12.7674C12.9163 12.6184 13 12.4163 13 12.2056C13 11.9949 12.9163 11.7929 12.7674 11.6439L9.12351 8L12.7674 4.35615C12.9163 4.20714 13 4.00508 13 3.79439C13 3.5837 12.9163 3.38164 12.7674 3.23264Z"/>
                    </svg>