<?xml version="1.0" encoding="UTF-8"?>
<svg width="64px" height="39px" viewBox="0 0 64 39" version="1.1" xmlns="http://www.w3.org/2000/svg" xmlns:xlink="http://www.w3.org/1999/xlink">
    <!-- Generator: Sketch 42 (36781) - http://www.bohemiancoding.com/sketch -->
    <title>accomplishment-hover-icon</title>
    <desc>Created with Sketch.</desc>
    <defs>
        <polygon id="path-1" points="0.424980019 0.846 11.8591407 0.846 11.8591407 12.1077 0.424980019 12.1077 0.424980019 0.846"></polygon>
    </defs>
    <g id="-" stroke="none" stroke-width="1" fill="none" fill-rule="evenodd">
        <g id="Icons-/-Main-Menu-/-Accomplishment-/-Hover" transform="translate(-8.000000, -22.000000)">
            <g id="accomplishment-hover-icon" transform="translate(8.000000, 21.000000)">
                <g id="Page-1">
                    <g id="Group-3" transform="translate(21.000000, 0.154300)">
                        <mask id="mask-2" fill="white">
                            <use xlink:href="#path-1"></use>
                        </mask>
                        <g id="Clip-2"></g>
                        <path d="M9.9893,0.8457 C8.8143,0.8457 8.8993,2.2007 8.3443,2.2007 C8.1633,2.2007 7.9143,2.0567 7.5313,1.6737 C7.0913,1.2347 6.3143,1.2097 6.1393,1.2097 L6.1033,1.2097 L6.0933,1.2097 C5.9893,1.2097 5.1433,1.2247 4.6843,1.6987 C4.3033,2.0917 4.0553,2.2397 3.8743,2.2397 C3.3293,2.2397 3.3813,0.9127 2.2383,0.9127 C1.9293,0.9127 1.5343,1.0087 1.0173,1.2537 C1.0173,1.2537 -2.1377,12.1077 6.1153,12.1077 L6.1973,12.1077 C14.5533,12.0357 11.1903,1.1657 11.1903,1.1657 C10.6833,0.9367 10.2943,0.8457 9.9893,0.8457 M6.1383,3.2097 C6.1703,3.2097 6.2133,3.2137 6.2513,3.2197 C6.7583,3.7017 7.4393,4.2007 8.3443,4.2007 C8.9203,4.2007 9.3643,4.0117 9.7033,3.7597 C9.9503,5.4727 9.9953,7.6937 9.0693,8.9567 C8.8633,9.2367 8.2373,10.0897 6.1803,10.1077 L6.1153,10.1077 C4.1023,10.1077 3.4723,9.2717 3.2653,8.9977 C2.3243,7.7487 2.3313,5.5327 2.5483,3.8197 C2.8833,4.0597 3.3183,4.2397 3.8743,4.2397 C4.7983,4.2397 5.4843,3.7207 5.9913,3.2207 C6.0233,3.2147 6.0543,3.2107 6.0653,3.2097 L6.1383,3.2097" id="Fill-1" fill="#797979" mask="url(#mask-2)"></path>
                    </g>
                    <path d="M29.1392,32.9751 L27.7312,11.3441" id="Stroke-4" stroke="#797979" stroke-width="2"></path>
                    <path d="M35.8628,33.0102 L42.2008,15.4662" id="Stroke-6" stroke="#797979" stroke-width="2"></path>
                    <path d="M45.5757,23.5156 C40.8997,24.5756 36.8207,30.9966 36.8207,30.9966 L36.7757,31.7406 C44.8497,28.8216 45.5757,23.5156 45.5757,23.5156 M43.8297,25.2846 C43.1067,26.5406 41.7137,28.2086 39.0537,29.6406 C40.1847,28.2346 41.9057,26.3796 43.8297,25.2846" id="Fill-8" fill="#797979"></path>
                    <path d="M0,38.1543 L64,38.1543" id="Stroke-10" stroke="#797979" stroke-width="2"></path>
                    <path d="M32,31.9751 C31.885,31.9751 31.7,31.9891 31.5,31.9921 C31.3,31.9891 31.115,31.9751 31,31.9751 L31,32.0081 C16.841,32.3591 10.5,38.7791 10.5,39.1541 L30.912,39.1541 L32.088,39.1541 L52.5,39.1541 C52.5,38.7791 46.159,32.3591 32,32.0081 L32,31.9751 Z M31.078,33.9781 L31.113,33.9791 C31.222,33.9851 31.346,33.9901 31.525,33.9921 C31.654,33.9901 31.778,33.9851 31.887,33.9791 L31.922,33.9781 L31.951,34.0081 C38.55,34.1711 43.221,35.6701 46.265,37.1541 L32.088,37.1541 L30.912,37.1541 L16.735,37.1541 C19.779,35.6701 24.45,34.1711 31.049,34.0081 L31.078,33.9781 L31.078,33.9781 Z" id="Fill-12" fill="#797979"></path>
                    <polygon id="Stroke-14" stroke="#797979" points="40.5234 11.1601 39.0164 12.4581 42.4664 14.9391"></polygon>
                    <polygon id="Stroke-16" stroke="#797979" points="45.9155 17.4194 44.4085 18.7174 42.4665 14.9394"></polygon>
                    <polygon id="Stroke-18" stroke="#797979" points="38.2202 14.7871 38.6162 16.7361 42.4662 14.9391"></polygon>
                    <polygon id="Stroke-20" stroke="#797979" points="46.3164 13.1416 46.7124 15.0906 42.4664 14.9386"></polygon>
                    <path d="M28.4351,20.5351 C28.4351,20.5351 27.1551,17.5061 24.3311,16.5481 C21.5061,15.5901 18.8111,17.2721 18.8111,17.2721 C18.8111,17.2721 19.9271,20.2461 22.7521,21.2041 C25.5771,22.1621 28.4351,20.5351 28.4351,20.5351 Z" id="Stroke-22" stroke="#797979" stroke-width="2"></path>
                    <path d="M29.1411,29.0151 C29.1411,29.0151 31.7011,28.5901 33.3621,26.5311 C35.0231,24.4721 34.8011,21.9991 34.8011,21.9991 C34.8011,21.9991 32.3371,22.3051 30.6761,24.3641 C29.0151,26.4231 29.1411,29.0151 29.1411,29.0151 Z" id="Stroke-24" stroke="#797979" stroke-width="2"></path>
                </g>
            </g>
        </g>
    </g>
</svg>