<?xml version="1.0" encoding="UTF-8"?>
<svg width="38px" height="14px" viewBox="0 0 38 14" version="1.1" xmlns="http://www.w3.org/2000/svg" xmlns:xlink="http://www.w3.org/1999/xlink">
    <!-- Generator: Sketch 42 (36781) - http://www.bohemiancoding.com/sketch -->
    <title>decor-right</title>
    <desc>Created with Sketch.</desc>
    <defs></defs>
    <g id="Page-1" stroke="none" stroke-width="1" fill="none" fill-rule="evenodd">
        <g id="home" transform="translate(-152.000000, -668.000000)" fill="#000000">
            <g id="decor-right" transform="translate(152.000000, 668.000000)">
                <path d="M37.967399,6.865 C38.049399,7.346 37.953399,7.836 37.932399,8.354 C37.888399,8.605 37.803399,8.853 37.732399,9.11 C37.659399,9.367 37.587399,9.632 37.443399,9.863 L37.037399,10.596 C36.886399,10.833 36.685399,11.023 36.497399,11.239 C36.123399,11.696 35.665399,11.997 35.188399,12.316 C34.233399,12.904 33.134399,13.248 32.125399,13.344 C31.065399,13.546 30.095399,13.374 29.097399,13.282 C25.309399,12.528 22.088399,10.803 19.247399,8.742 L19.212399,8.757 C19.212399,8.757 14.978399,6.168 12.557399,4.687 C9.64039897,2.903 7.21439897,3.619 6.23139897,4.687 C6.23139897,4.687 7.81239897,2.454 11.698399,1.214 C11.688399,1.2 11.676399,1.187 11.667399,1.174 C11.688399,1.183 11.708399,1.194 11.728399,1.205 C12.230399,1.046 12.765399,0.9 13.345399,0.782 L23.282399,6.875 C25.486399,7.809 27.694399,8.56 29.827399,8.945 C30.534399,9 31.270399,9.178 31.926399,9.185 C32.630399,9.277 33.249399,9.274 33.870399,9.209 C34.171399,9.165 34.517399,9.145 34.779399,9.007 C34.917399,8.946 35.092399,8.912 35.227399,8.832 L35.627399,8.56 C35.783399,8.477 35.895399,8.353 35.999399,8.219 C36.105399,8.086 36.237399,7.957 36.339399,7.807 C36.482399,7.486 36.729399,7.162 36.777399,6.775 C36.823399,6.588 36.869399,6.394 36.903399,6.198 C36.905399,6.002 36.918399,5.801 36.914399,5.599 C36.946399,5.189 36.813399,4.797 36.743399,4.389 C36.498399,3.607 36.124399,2.844 35.587399,2.201 C34.553399,0.89 32.912399,0.02 31.187399,0.001 C33.031399,0.007 34.525399,1.502 34.525399,3.347 C34.525399,5.196 33.027399,6.695 31.178399,6.695 C29.329399,6.695 27.830399,5.196 27.830399,3.347 C27.830399,1.5 29.328399,0.002 31.176399,0.001 C31.175399,0.001 31.175399,0 31.175399,0 L31.176399,0 L31.178399,0 C31.179399,0 31.180399,0.001 31.181399,0.001 C32.905399,-0.029 34.603399,0.732 35.822399,1.993 C37.062399,3.259 37.784399,4.964 37.967399,6.865 Z M12.767699,8.8396 C15.684699,10.6236 18.110699,9.9076 19.092699,8.8396 C19.092699,8.8396 17.076699,11.6996 11.979699,12.7446 L1.93269897,6.5846 L6.11269897,4.7696 C6.11269897,4.7696 10.346699,7.3586 12.767699,8.8396 Z" id="Combined-Shape"></path>
                <polygon id="Page-1" points="0 8 6 8 6 5 0 5"></polygon>
            </g>
        </g>
    </g>
</svg>