<?xml version="1.0" encoding="UTF-8"?>
<svg width="16px" height="16px" viewBox="0 0 16 16" version="1.1" xmlns="http://www.w3.org/2000/svg" xmlns:xlink="http://www.w3.org/1999/xlink">
    <!-- Generator: Sketch 42 (36781) - http://www.bohemiancoding.com/sketch -->
    <title>delete-hover</title>
    <desc>Created with Sketch.</desc>
    <defs></defs>
    <g id="-" stroke="none" stroke-width="1" fill="none" fill-rule="evenodd">
        <g id="Icons-/-Remove-/-Hover">
            <g id="delete-hover">
                <path d="M5,5 L11,11" id="Stroke-1" stroke="#952C21"></path>
                <path d="M11,5 L5,11" id="Stroke-2" stroke="#952C21"></path>
                <path d="M8,0 C3.582,0 0,3.582 0,8 C0,12.418 3.582,16 8,16 C12.418,16 16,12.418 16,8 C16,3.582 12.418,0 8,0 M8,1 C11.859,1 15,4.141 15,8 C15,11.859 11.859,15 8,15 C4.141,15 1,11.859 1,8 C1,4.141 4.141,1 8,1" id="Fill-3" fill="#952C21"></path>
            </g>
        </g>
    </g>
</svg>