<?xml version="1.0" encoding="UTF-8"?>
<svg width="50px" height="55px" viewBox="0 0 50 55" version="1.1" xmlns="http://www.w3.org/2000/svg" xmlns:xlink="http://www.w3.org/1999/xlink">
    <!-- Generator: Sketch 42 (36781) - http://www.bohemiancoding.com/sketch -->
    <title>engraving-big-icon</title>
    <desc>Created with Sketch.</desc>
    <defs></defs>
    <g id="-" stroke="none" stroke-width="1" fill="none" fill-rule="evenodd">
        <g id="Icons-/-Engraving-/-150-X-150" transform="translate(-19.000000, -19.000000)">
            <g id="engraving-big-icon" transform="translate(19.000000, 19.000000)">
                <g id="Group-30">
                    <path d="M9.5,53.8501 L9.5,11.4391 C11.024,10.2051 22.524,1.4121 40.5,1.2511 L40.5,53.8501 L9.5,53.8501 Z" id="Fill-2" fill="#797979"></path>
                    <path d="M41,0.749 C21.037,0.749 9,11.204 9,11.204 L9,54.35 L41,54.35 L41,0.749 Z M40,1.758 L40,53.35 L10,53.35 L10,11.679 C12.042,10.068 23.032,2.063 40,1.758 L40,1.758 Z" id="Fill-4" fill="#797979"></path>
                    <g id="Group-9" transform="translate(0.000000, 54.000000)">
                        <path d="M0,0.5 L50,0.5" id="Fill-6" fill="#E4E4E4"></path>
                        <path d="M0,0.5 L50,0.5" id="Stroke-8" stroke="#797979"></path>
                    </g>
                    <path d="M31.1914,30.6108 C32.3534,28.4468 32.1774,25.6378 30.7764,23.6208 C29.3754,21.6038 26.8214,20.4598 24.3794,20.7308 C23.0574,20.8768 21.7814,21.4128 20.7514,22.2548 C19.5874,23.2048 18.7564,24.5188 18.2324,25.9248 C17.7084,27.3328 17.4774,28.8338 17.3774,30.3308 C17.3044,31.4108 17.2984,32.4988 17.1244,33.5668 C16.9494,34.6338 16.5914,35.6998 15.8994,36.5318 C15.2074,37.3628 14.1394,37.9298 13.0624,37.8308" id="Stroke-10" stroke="#E4E4E4"></path>
                    <path d="M22.0381,33.5835 C22.4841,34.5845 23.6771,35.1205 24.7671,35.0005 C25.8561,34.8815 26.8261,34.2085 27.5251,33.3655 C28.2251,32.5215 28.6911,31.5125 29.1331,30.5085 C29.4441,29.8005 29.7541,29.0265 29.5751,28.2735 C29.4501,27.7475 29.0971,27.3005 28.6881,26.9455 C27.4601,25.8765 25.6421,25.5345 24.1091,26.0845 C23.2051,26.4095 22.4281,27.0055 21.6881,27.6195 C21.3551,27.8965 21.0191,28.1865 20.7991,28.5595 C20.5701,28.9445 20.4781,29.3945 20.4041,29.8355 C19.9181,32.7225 20.0261,35.7085 20.7181,38.5525 C20.9961,39.6935 21.3471,40.8115 21.8761,41.8605 C22.4051,42.9095 23.1641,43.8745 24.1831,44.4595" id="Stroke-12" stroke="#E4E4E4"></path>
                    <path d="M26.4092,36.8359 C25.7852,37.6059 24.7562,37.9579 23.7652,37.9769 C22.7742,37.9969 21.8042,37.7259 20.8532,37.4449" id="Stroke-14" stroke="#E4E4E4"></path>
                    <path d="M30.9727,37.4902 C31.4177,38.0362 32.2247,38.3792 32.9087,38.1332 C33.3217,37.9842 33.6297,37.6442 33.8017,37.2632 C33.9727,36.8832 34.0197,36.4632 34.0257,36.0502 C34.0327,35.5312 33.9787,35.0122 33.8647,34.5042 C33.7857,34.1552 33.6097,33.7502 33.2337,33.6912 C32.9087,33.6402 32.5957,33.8842 32.2717,33.8382 C32.0817,33.8112 31.9247,33.6912 31.7437,33.6322 C31.2707,33.4752 30.7397,33.7852 30.5107,34.2002 C29.9947,35.1392 30.3027,36.6712 30.9727,37.4902 Z" id="Stroke-16" stroke="#E4E4E4"></path>
                    <path d="M30.4961,39.1226 C29.8701,39.2386 29.2261,39.3616 28.6891,39.7046 C28.1781,40.0306 27.8001,40.5366 27.5401,41.0846 C27.2801,41.6326 27.1301,42.2256 26.9951,42.8176" id="Stroke-18" stroke="#E4E4E4"></path>
                    <path d="M33.8213,39.1431 C34.7083,39.3311 35.5313,39.8041 36.1413,40.4751 C36.7523,41.1451 37.1453,42.0101 37.2503,42.9101" id="Stroke-20" stroke="#E4E4E4"></path>
                    <path d="M17.0684,33.8691 C15.6814,32.1481 14.8524,29.9601 14.8524,27.5771 C14.8524,22.0341 19.3464,17.5401 24.8894,17.5401 C30.4334,17.5401 34.9274,22.0341 34.9274,27.5771 C34.9274,28.8761 34.6804,30.1161 34.2324,31.2551" id="Stroke-22" stroke="#E4E4E4"></path>
                    <path d="M29.8682,39.248 C28.5402,38.452 27.6502,36.998 27.6502,35.337 C27.6502,32.821 29.6902,30.781 32.2072,30.781 C32.9342,30.781 33.6222,30.952 34.2312,31.255 C35.7312,32 36.7632,33.548 36.7632,35.337 C36.7632,37.05 35.8172,38.542 34.4212,39.32" id="Stroke-24" stroke="#E4E4E4"></path>
                    <path d="M27.9932,28.7739 C27.4832,28.7189 26.9532,28.9739 26.6782,29.4059 C26.4682,29.7339 26.4062,30.1319 26.3482,30.5179 C26.2922,30.9029 26.2302,31.3009 26.0202,31.6289 C25.8112,31.9579 25.4112,32.1979 25.0352,32.0969" id="Stroke-26" stroke="#E4E4E4"></path>
                    <path d="M23.5498,28.603 C24.4678,28.237 25.5018,28.166 26.4608,28.405" id="Stroke-28" stroke="#E4E4E4"></path>
                </g>
            </g>
        </g>
    </g>
</svg>