<?xml version="1.0" encoding="UTF-8"?>
<svg width="50px" height="55px" viewBox="0 0 50 55" version="1.1" xmlns="http://www.w3.org/2000/svg" xmlns:xlink="http://www.w3.org/1999/xlink">
    <!-- Generator: Sketch 46 (44423) - http://www.bohemiancoding.com/sketch -->
    <title>engraving-small-icon_focused</title>
    <desc>Created with Sketch.</desc>
    <defs></defs>
    <g id="-" stroke="none" stroke-width="1" fill="none" fill-rule="evenodd">
        <g id="Icons-/-Engraving-/-100-X-100-Focused" transform="translate(-19.000000, -19.000000)">
            <g id="engraving-small-icon_focused" transform="translate(19.000000, 19.000000)">
                <g id="Group-26">
                    <path d="M9.5,53.8501 L9.5,11.4391 C11.024,10.2051 22.524,1.4121 40.5,1.2511 L40.5,53.8501 L9.5,53.8501 Z" id="Fill-2" fill="#952C21"></path>
                    <path d="M41,0.749 C21.037,0.749 9,11.204 9,11.204 L9,54.35 L41,54.35 L41,0.749 Z M40,1.758 L40,53.35 L10,53.35 L10,11.68 C12.047,10.07 23.067,2.065 40,1.758 L40,1.758 Z" id="Fill-4" fill="#952C21"></path>
                    <g id="Group-9" transform="translate(0.000000, 54.000000)">
                        <path d="M0,0.5 L50,0.5" id="Fill-6" fill="#E4E4E4"></path>
                        <path d="M0,0.5 L50,0.5" id="Stroke-8" stroke="#952C21"></path>
                    </g>
                    <path d="M29.3037,30.7324 C30.1027,29.2454 29.9817,27.3154 29.0187,25.9294 C28.0557,24.5424 26.3007,23.7564 24.6227,23.9424 C23.7137,24.0434 22.8367,24.4114 22.1287,24.9894 C21.3297,25.6424 20.7587,26.5454 20.3987,27.5124 C20.0377,28.4794 19.8787,29.5104 19.8097,30.5404 C19.7607,31.2824 19.7557,32.0294 19.6357,32.7634 C19.5157,33.4974 19.2707,34.2304 18.7947,34.8014 C18.3197,35.3734 17.5847,35.7624 16.8447,35.6944" id="Stroke-10" stroke="#FFFFFF"></path>
                    <path d="M23.0137,32.7754 C23.3207,33.4634 24.1397,33.8314 24.8887,33.7494 C25.6367,33.6674 26.3037,33.2054 26.7847,32.6254 C27.2657,32.0454 27.5857,31.3524 27.8887,30.6624 C28.1037,30.1754 28.3167,29.6434 28.1937,29.1264 C28.1077,28.7644 27.8647,28.4574 27.5837,28.2134 C26.7397,27.4794 25.4907,27.2444 24.4367,27.6224 C23.8157,27.8454 23.2817,28.2554 22.7737,28.6764 C22.5437,28.8674 22.3137,29.0664 22.1607,29.3224 C22.0037,29.5874 21.9417,29.8964 21.8907,30.2004 C21.5567,32.1844 21.6307,34.2354 22.1067,36.1904 C22.2967,36.9744 22.5377,37.7424 22.9027,38.4634 C23.2657,39.1844 23.7867,39.8474 24.4877,40.2504" id="Stroke-12" stroke="#FFFFFF"></path>
                    <path d="M26.0176,35.0107 C25.5886,35.5397 24.8806,35.7817 24.2006,35.7947 C23.5196,35.8087 22.8526,35.6227 22.1996,35.4287" id="Stroke-14" stroke="#FFFFFF"></path>
                    <path d="M29.1924,35.3574 C29.4444,35.6744 29.9154,35.8884 30.3274,35.7704 C30.5764,35.6984 30.7684,35.5184 30.8794,35.3104 C30.9904,35.1034 31.0274,34.8714 31.0414,34.6414 C31.0564,34.3524 31.0374,34.0614 30.9814,33.7744 C30.9434,33.5784 30.8474,33.3474 30.6254,33.3044 C30.4334,33.2664 30.2424,33.3944 30.0494,33.3594 C29.9384,33.3394 29.8474,33.2674 29.7424,33.2294 C29.4634,33.1284 29.1404,33.2864 28.9954,33.5114 C28.6664,34.0204 28.8134,34.8824 29.1924,35.3574 Z" id="Stroke-16" stroke="#FFFFFF"></path>
                    <path d="M28.8262,36.582 C28.3952,36.662 27.9542,36.747 27.5852,36.982 C27.2332,37.206 26.9732,37.554 26.7952,37.931 C26.6162,38.307 26.5132,38.715 26.4202,39.121" id="Stroke-18" stroke="#FFFFFF"></path>
                    <path d="M31.1113,36.5962 C31.7203,36.7262 32.2873,37.0512 32.7063,37.5112 C33.1253,37.9722 33.3953,38.5662 33.4673,39.1852" id="Stroke-20" stroke="#FFFFFF"></path>
                    <path d="M19.5977,32.9717 C18.6457,31.7887 18.0757,30.2847 18.0757,28.6477 C18.0757,24.8387 21.1627,21.7497 24.9737,21.7497 C28.7837,21.7497 31.8707,24.8387 31.8707,28.6477 C31.8707,29.5397 31.7017,30.3927 31.3937,31.1757" id="Stroke-22" stroke="#FFFFFF"></path>
                    <path d="M28.3945,36.6685 C27.4815,36.1215 26.8705,35.1225 26.8705,33.9805 C26.8705,32.2515 28.2725,30.8495 30.0015,30.8495 C30.5015,30.8495 30.9735,30.9665 31.3935,31.1755 C32.4235,31.6875 33.1325,32.7515 33.1325,33.9805 C33.1325,35.1575 32.4835,36.1835 31.5235,36.7185" id="Stroke-24" stroke="#FFFFFF"></path>
                </g>
            </g>
        </g>
    </g>
</svg>