<?xml version="1.0" encoding="UTF-8"?>
<svg width="50px" height="55px" viewBox="0 0 50 55" version="1.1" xmlns="http://www.w3.org/2000/svg" xmlns:xlink="http://www.w3.org/1999/xlink">
    <!-- Generator: Sketch 46 (44423) - http://www.bohemiancoding.com/sketch -->
    <title>faith-symbol-icon_focused</title>
    <desc>Created with Sketch.</desc>
    <defs></defs>
    <g id="-" stroke="none" stroke-width="1" fill="none" fill-rule="evenodd">
        <g id="Icons-/-Symbol-of-faith-/-Cross-/-Focused" transform="translate(-19.000000, -19.000000)">
            <g id="faith-symbol-icon_focused" transform="translate(19.000000, 19.000000)">
                <g id="Group-23">
                    <path d="M9.5,53.8501 L9.5,11.4391 C11.024,10.2051 22.524,1.4121 40.5,1.2511 L40.5,53.8501 L9.5,53.8501 Z" id="Fill-2" fill="#952C21"></path>
                    <path d="M41,0.749 C21.037,0.749 9,11.204 9,11.204 L9,54.35 L41,54.35 L41,0.749 Z M40,1.758 L40,53.35 L10,53.35 L10,11.679 C12.042,10.068 23.032,2.063 40,1.758 L40,1.758 Z" id="Fill-4" fill="#952C21"></path>
                    <g id="Group-9" transform="translate(0.000000, 54.000000)">
                        <path d="M0,0.5 L50,0.5" id="Fill-6" fill="#E4E4E4"></path>
                        <path d="M0,0.5 L50,0.5" id="Stroke-8" stroke="#952C21"></path>
                    </g>
                    <polygon id="Fill-10" fill="#E4E4E4" points="25.5 29.5 26.5 29.5 26.5 14.5 25.5 14.5"></polygon>
                    <path d="M25,30 L27,30 L27,14 L25,14 L25,30 Z M26,15 L26,29 L26,15 Z" id="Fill-12" fill="#FFFFFF"></path>
                    <polygon id="Fill-13" fill="#E4E4E4" points="24 17.5 28 17.5 28 16.5 24 16.5"></polygon>
                    <polygon id="Fill-14" fill="#FFFFFF" points="23.5 18 28.5 18 28.5 16 23.5 16"></polygon>
                    <polygon id="Fill-15" fill="#E4E4E4" points="22.5098 23.8257 22.5098 23.5917 29.1248 26.9617 29.1248 27.1957"></polygon>
                    <polygon id="Fill-16" fill="#FFFFFF" points="22.0098 22.7759 22.0098 24.1319 29.6248 28.0109 29.6248 26.6549"></polygon>
                    <polygon id="Fill-17" fill="#E4E4E4" points="21 20.5 31 20.5 31 19.5 21 19.5"></polygon>
                    <polygon id="Fill-18" fill="#FFFFFF" points="20.5 21 31.5 21 31.5 19 20.5 19"></polygon>
                    <polygon id="Stroke-19" stroke="#FFFFFF" points="18.3506 33.1968 12.9796 42.4998 23.7216 42.4998"></polygon>
                    <polygon id="Stroke-20" stroke="#FFFFFF" points="18.1934 45.5312 23.4074 36.5002 12.9794 36.5002"></polygon>
                    <path d="M35.3008,43.6685 C32.7078,43.6685 30.6068,41.5665 30.6068,38.9745 C30.6068,36.3815 32.7078,34.2795 35.3008,34.2795 C36.1078,34.2795 36.8548,34.5015 37.5178,34.8605 C36.5958,34.1035 35.4318,33.6305 34.1458,33.6305 C31.1938,33.6305 28.8008,36.0225 28.8008,38.9745 C28.8008,41.9255 31.1938,44.3185 34.1458,44.3185 C35.4318,44.3185 36.5958,43.8455 37.5178,43.0885 C36.8548,43.4465 36.1078,43.6685 35.3008,43.6685" id="Fill-21" fill="#FFFFFF"></path>
                    <polygon id="Fill-22" fill="#FFFFFF" points="37.8506 40.9219 36.5756 40.0039 35.3076 40.9329 35.7876 39.4369 34.5116 38.5189 36.0826 38.5119 36.5616 37.0159 37.0536 38.5079 38.6246 38.5009 37.3586 39.4299"></polygon>
                </g>
            </g>
        </g>
    </g>
</svg>