<?xml version="1.0" encoding="UTF-8"?>
<svg width="50px" height="55px" viewBox="0 0 50 55" version="1.1" xmlns="http://www.w3.org/2000/svg" xmlns:xlink="http://www.w3.org/1999/xlink">
    <!-- Generator: Sketch 42 (36781) - http://www.bohemiancoding.com/sketch -->
    <title>flowers-icon</title>
    <desc>Created with Sketch.</desc>
    <defs></defs>
    <g id="-" stroke="none" stroke-width="1" fill="none" fill-rule="evenodd">
        <g id="Icons-/-Flowers-/-Default" transform="translate(-19.000000, -19.000000)">
            <g id="flowers-icon" transform="translate(19.000000, 19.000000)">
                <g id="Group-26">
                    <path d="M9.5,53.8501 L9.5,11.4391 C11.024,10.2051 22.524,1.4121 40.5,1.2511 L40.5,53.8501 L9.5,53.8501 Z" id="Fill-2" fill="#797979"></path>
                    <path d="M41,0.749 C21.037,0.749 9,11.204 9,11.204 L9,54.35 L41,54.35 L41,0.749 Z M40,1.758 L40,53.35 L10,53.35 L10,11.68 C12.047,10.07 23.067,2.065 40,1.758 L40,1.758 Z" id="Fill-4" fill="#797979"></path>
                    <g id="Group-9" transform="translate(0.000000, 54.000000)">
                        <path d="M0,0.5 L50,0.5" id="Fill-6" fill="#E4E4E4"></path>
                        <path d="M0,0.5 L50,0.5" id="Stroke-8" stroke="#797979"></path>
                    </g>
                    <path d="M15.0449,28.4873 C13.6879,29.5873 15.7169,29.8573 14.4359,30.2833 C14.0929,30.3973 13.8939,30.8313 13.8939,30.8313 C13.8939,30.8313 13.6719,31.2543 13.7909,31.5943 C14.2369,32.8703 12.7819,31.4283 12.7419,33.1743 C12.7419,33.1743 17.0239,37.1483 18.9149,33.2983 C20.8069,29.4473 15.0449,28.4873 15.0449,28.4873" id="Fill-10" fill="#E4E4E4"></path>
                    <g id="Group-15" transform="translate(18.000000, 33.000000)">
                        <path d="M15.0732,7.2524 L0.9152,0.2974" id="Fill-12" fill="#797979"></path>
                        <path d="M15.0732,7.2524 L0.9152,0.2974" id="Stroke-14" stroke="#E4E4E4"></path>
                    </g>
                    <path d="M20.3008,37.8613 C20.3008,37.8613 24.7958,39.8903 28.9998,38.4563 L28.3828,38.1533 C28.3828,38.1533 22.2208,36.7603 20.3008,37.8613" id="Fill-16" fill="#E4E4E4"></path>
                    <path d="M22.9619,21.79 C21.3199,22.387 23.1499,23.304 21.7999,23.289 C21.4389,23.285 21.1089,23.63 21.1089,23.63 C21.1089,23.63 20.7619,23.957 20.7629,24.318 C20.7689,25.669 19.8639,23.832 19.2559,25.47 C19.2559,25.47 22.0079,30.622 25.0509,27.6 C28.0949,24.577 22.9619,21.79 22.9619,21.79" id="Fill-18" fill="#E4E4E4"></path>
                    <g id="Group-23" transform="translate(25.000000, 27.000000)">
                        <path d="M11.167,11.792 L0.051,0.6" id="Fill-20" fill="#797979"></path>
                        <path d="M11.167,11.792 L0.051,0.6" id="Stroke-22" stroke="#E4E4E4"></path>
                    </g>
                    <path d="M24.8721,32.3652 C24.8721,32.3652 28.4601,35.7502 32.9021,35.7652 L32.4181,35.2772 C32.4181,35.2772 27.0471,31.9512 24.8721,32.3652" id="Fill-24" fill="#E4E4E4"></path>
                </g>
            </g>
        </g>
    </g>
</svg>