<?xml version="1.0" encoding="UTF-8"?>
<svg width="18px" height="20px" viewBox="0 0 18 20" version="1.1" xmlns="http://www.w3.org/2000/svg" xmlns:xlink="http://www.w3.org/1999/xlink">
    <!-- Generator: Sketch 42 (36781) - http://www.bohemiancoding.com/sketch -->
    <title>lock-opened-icon</title>
    <desc>Created with Sketch.</desc>
    <defs></defs>
    <g id="-" stroke="none" stroke-width="1" fill="none" fill-rule="evenodd">
        <g id="Icons-/-Login-/-Open" transform="translate(-3.000000, -2.000000)">
            <g id="lock-opened-icon">
                <g id="Page-1" transform="translate(4.000000, 3.000000)">
                    <path d="M13.4697,18 L2.5307,18 C1.1327,18 -0.0003,16.867 -0.0003,15.47 L-0.0003,8.53 C-0.0003,7.133 1.1327,6 2.5307,6 L13.4697,6 C14.8667,6 15.9997,7.133 15.9997,8.53 L15.9997,15.47 C15.9997,16.867 14.8667,18 13.4697,18 Z" id="Stroke-1" stroke="#000000" stroke-width="2"></path>
                    <path d="M12,3 L12,2.454 C12,1.099 10.884,0 9.507,0 L6.493,0 C5.116,0 4,1.099 4,2.454 L4,6" id="Stroke-3" stroke="#000000" stroke-width="2"></path>
                    <path d="M10,11.5 C10,12.604 9.104,13.5 8,13.5 C6.896,13.5 6,12.604 6,11.5 C6,10.396 6.896,9.5 8,9.5 C9.104,9.5 10,10.396 10,11.5" id="Fill-5" fill="#000000"></path>
                    <path d="M8,16 L8,12" id="Stroke-9" stroke="#000000" stroke-width="2"></path>
                </g>
                <rect id="Rectangle-22" x="0" y="0" width="24" height="24"></rect>
            </g>
        </g>
    </g>
</svg>