<?xml version="1.0" encoding="UTF-8"?>
<svg width="50px" height="52px" viewBox="0 0 50 52" version="1.1" xmlns="http://www.w3.org/2000/svg" xmlns:xlink="http://www.w3.org/1999/xlink">
    <!-- Generator: Sketch 42 (36781) - http://www.bohemiancoding.com/sketch -->
    <title>memorial-size-m-icon</title>
    <desc>Created with Sketch.</desc>
    <defs></defs>
    <g id="-" stroke="none" stroke-width="1" fill="none" fill-rule="evenodd">
        <g id="Icons-/-Memorial-/-Size-/-M-/-Default" transform="translate(-19.000000, -24.000000)">
            <g id="memorial-size-m-icon" transform="translate(19.000000, 24.000000)">
                <polygon id="Fill-2" fill="#797979" points="12.5 48.5 37.5 48.5 37.5 0.5 12.5 0.5"></polygon>
                <path d="M12,49 L38,49 L38,0 L12,0 L12,49 Z M13,48 L37,48 L37,1 L13,1 L13,48 Z" id="Fill-3" fill="#797979"></path>
                <path d="M-0.0001,51.4999 L49.9999,51.4999 L-0.0001,51.4999 Z" id="Fill-4" fill="#E4E4E4"></path>
                <path d="M0,51.5 L50,51.5" id="Stroke-5" stroke="#797979"></path>
                <polygon id="Fill-6" fill="#797979" points="6.5 50.5 43.5 50.5 43.5 46.5 6.5 46.5"></polygon>
                <path d="M6,51 L44,51 L44,46 L6,46 L6,51 Z M7,50 L43,50 L43,47 L7,47 L7,50 Z" id="Fill-7" fill="#797979"></path>
            </g>
        </g>
    </g>
</svg>