<?xml version="1.0" encoding="UTF-8"?>
<svg width="50px" height="53px" viewBox="0 0 50 53" version="1.1" xmlns="http://www.w3.org/2000/svg" xmlns:xlink="http://www.w3.org/1999/xlink">
    <!-- Generator: Sketch 42 (36781) - http://www.bohemiancoding.com/sketch -->
    <title>memorial-size-m-focused-icon</title>
    <desc>Created with Sketch.</desc>
    <defs></defs>
    <g id="-" stroke="none" stroke-width="1" fill="none" fill-rule="evenodd">
        <g id="Icons-/-Memorial-/-Size-/-M-/-Focused" transform="translate(-19.000000, -24.000000)">
            <g id="memorial-size-m-focused-icon" transform="translate(19.000000, 24.000000)">
                <polygon id="Fill-3" fill="#952C21" points="12.5 48.573 37.5 48.573 37.5 0.573 12.5 0.573"></polygon>
                <path d="M12,49.073 L38,49.073 L38,0.073 L12,0.073 L12,49.073 Z M13,48.073 L37,48.073 L37,1.073 L13,1.073 L13,48.073 Z" id="Fill-4" fill="#952C21"></path>
                <path d="M-0.0001,51.5728 L49.9999,51.5728 L-0.0001,51.5728 Z" id="Fill-5" fill="#E4E4E4"></path>
                <path d="M0,51.5732 L50,51.5732" id="Stroke-6" stroke="#952C21"></path>
                <polygon id="Fill-7" fill="#952C21" points="6.5 50.5 43.5 50.5 43.5 46.5 6.5 46.5"></polygon>
                <path d="M6,51 L44,51 L44,46 L6,46 L6,51 Z M7,50 L43,50 L43,47 L7,47 L7,50 Z" id="Fill-8" fill="#952C21"></path>
            </g>
        </g>
    </g>
</svg>