<?xml version="1.0" encoding="UTF-8"?>
<svg width="50px" height="62px" viewBox="0 0 50 62" version="1.1" xmlns="http://www.w3.org/2000/svg" xmlns:xlink="http://www.w3.org/1999/xlink">
    <!-- Generator: Sketch 42 (36781) - http://www.bohemiancoding.com/sketch -->
    <title>memorial-size-l-focused-icon</title>
    <desc>Created with Sketch.</desc>
    <defs></defs>
    <g id="-" stroke="none" stroke-width="1" fill="none" fill-rule="evenodd">
        <g id="Icons-/-Memorial-/-Size-/-L-/-Focused" transform="translate(-19.000000, -15.000000)">
            <g id="memorial-size-l-focused-icon" transform="translate(19.000000, 15.000000)">
                <polygon id="Fill-3" fill="#952C21" points="10.5 60.404 39.5 60.404 39.5 0.573 10.5 0.573"></polygon>
                <path d="M10,60.904 L40,60.904 L40,0.073 L10,0.073 L10,60.904 Z M11,59.904 L39,59.904 L39,1.073 L11,1.073 L11,59.904 Z" id="Fill-4" fill="#952C21"></path>
                <path d="M-0.0001,60.5728 L49.9999,60.5728 L-0.0001,60.5728 Z" id="Fill-5" fill="#E4E4E4"></path>
                <path d="M0,60.5732 L50,60.5732" id="Stroke-6" stroke="#952C21"></path>
                <polygon id="Fill-7" fill="#952C21" points="5.5 59.5 44.5 59.5 44.5 55.5 5.5 55.5"></polygon>
                <path d="M5,60 L45,60 L45,55 L5,55 L5,60 Z M6,59 L44,59 L44,56 L6,56 L6,59 Z" id="Fill-8" fill="#952C21"></path>
            </g>
        </g>
    </g>
</svg>