<?xml version="1.0" encoding="UTF-8"?>
<svg width="64px" height="48px" viewBox="0 0 64 48" version="1.1" xmlns="http://www.w3.org/2000/svg" xmlns:xlink="http://www.w3.org/1999/xlink">
    <!-- Generator: Sketch 42 (36781) - http://www.bohemiancoding.com/sketch -->
    <title>memorial-icon</title>
    <desc>Created with Sketch.</desc>
    <defs></defs>
    <g id="-" stroke="none" stroke-width="1" fill="none" fill-rule="evenodd">
        <g id="Icons-/-Main-Menu-/-Memorials-/-Default" transform="translate(-8.000000, -16.000000)">
            <g id="memorial-icon" transform="translate(8.000000, 16.000000)">
                <path d="M43.9585,0 C44.2965,0 44.6425,0.018 45.0005,0.018 L45.0005,44 L19.0005,44 L19.0005,19.919 L19.0005,6.103 C19.0005,6.103 27.2965,0.373 43.7435,0.003 C43.8145,0.001 43.8865,0 43.9585,0 Z M43.0005,2.024 C30.8135,2.439 23.4105,5.909 21.0005,7.238 L21.0005,19.919 L21.0005,42 L43.0005,42 L43.0005,2.024 Z" id="Fill-1" fill="#952C21"></path>
                <path d="M24,26 L40,26" id="Stroke-3" stroke="#952C21" stroke-width="2"></path>
                <path d="M25,30 L39,30" id="Stroke-5" stroke="#952C21" stroke-width="2"></path>
                <polygon id="Stroke-7" stroke="#952C21" stroke-width="2" points="16 47 48 47 48 43 16 43"></polygon>
                <path d="M32.2358,17 C32.2358,17 34.6648,16.6 34.6648,13.571 C34.6648,11 32.2358,11 32.2358,11 L31.6708,11 C31.6708,11 29.2418,11 29.2418,13.571 C29.2418,16.6 31.6708,17 31.6708,17 L32.2358,17 Z" id="Stroke-9" stroke="#952C21" stroke-width="2"></path>
                <path d="M25.7813,21.7397 C25.7813,21.7397 25.7813,18.1977 28.5733,17.9997 L32.0003,17.9997" id="Stroke-10" stroke="#952C21" stroke-width="2"></path>
                <path d="M38.125,21.7397 C38.125,21.7397 38.125,18.1977 35.333,17.9997 L32,17.9997" id="Stroke-11" stroke="#952C21" stroke-width="2"></path>
                <path d="M0,47 L64,47" id="Stroke-12" stroke="#952C21" stroke-width="2"></path>
            </g>
        </g>
    </g>
</svg>