<?xml version="1.0" encoding="UTF-8"?>
<svg width="50px" height="35px" viewBox="0 0 50 35" version="1.1" xmlns="http://www.w3.org/2000/svg" xmlns:xlink="http://www.w3.org/1999/xlink">
    <!-- Generator: Sketch 42 (36781) - http://www.bohemiancoding.com/sketch -->
    <title>memorial-size-s-focused-icon</title>
    <desc>Created with Sketch.</desc>
    <defs></defs>
    <g id="-" stroke="none" stroke-width="1" fill="none" fill-rule="evenodd">
        <g id="Icons-/-Size-/-S-/-Focused" transform="translate(-19.000000, -41.000000)">
            <g id="memorial-size-s-focused-icon" transform="translate(19.000000, 41.000000)">
                <polygon id="Fill-3" fill="#952C21" points="16.5 31.5 33.5 31.5 33.5 0.5 16.5 0.5"></polygon>
                <path d="M16,32 L34,32 L34,0 L16,0 L16,32 Z M17,31 L33,31 L33,1 L17,1 L17,31 Z" id="Fill-4" fill="#952C21"></path>
                <path d="M0,34.5 L50,34.5" id="Stroke-5" stroke="#952C21"></path>
                <polygon id="Fill-6" fill="#952C21" points="13.5 33.5 36.5 33.5 36.5 30.5 13.5 30.5"></polygon>
                <path d="M13,34 L37,34 L37,30 L13,30 L13,34 Z M14,33 L36,33 L36,31 L14,31 L14,33 Z" id="Fill-7" fill="#952C21"></path>
            </g>
        </g>
    </g>
</svg>