<?xml version="1.0" encoding="UTF-8"?>
<svg width="49px" height="63px" viewBox="0 0 49 63" version="1.1" xmlns="http://www.w3.org/2000/svg" xmlns:xlink="http://www.w3.org/1999/xlink">
    <!-- Generator: Sketch 42 (36781) - http://www.bohemiancoding.com/sketch -->
    <title>polish-1-side-icon</title>
    <desc>Created with Sketch.</desc>
    <defs></defs>
    <g id="-" stroke="none" stroke-width="1" fill="none" fill-rule="evenodd">
        <g id="Icons-/-Polish-/-1-side-/-Default" transform="translate(-19.000000, -15.000000)">
            <g id="polish-1-side-icon" transform="translate(19.000000, 15.000000)">
                <polygon id="Fill-2" fill="#4A4A4A" points="1.8379 56.5 25.6649 42.5 46.6919 42.5 22.8639 56.5"></polygon>
                <path d="M48.5293,42 L25.5293,42 L0.0003,57 L23.0003,57 L48.5293,42 Z M44.8533,43 L22.7273,56 L3.6753,56 L25.8003,43 L44.8533,43 Z" id="Fill-3" fill="#4A4A4A"></path>
                <polygon id="Fill-4" fill="#4A4A4A" points="20 54.9062 20 10.0002 37 0.0002 37 45.0232"></polygon>
                <polygon id="Fill-5" fill="#CBCBCB" points="13.8613 9.5 29.4083 0.5 35.1643 0.5 19.8643 9.5"></polygon>
                <path d="M37,0 L29.273,0 L12,10 L20,10 L37,0 Z M33.328,1 L19.728,9 L15.724,9 L29.542,1 L33.328,1 Z" id="Fill-6" fill="#CBCBCB"></path>
                <polygon id="Fill-7" fill="#9B9B9B" points="0.5 62.5 22.5 62.5 22.5 57.5 0.5 57.5"></polygon>
                <path d="M0,63 L23,63 L23,57 L0,57 L0,63 Z M1,62 L22,62 L22,58 L1,58 L1,62 Z" id="Fill-8" fill="#9B9B9B"></path>
                <polygon id="Fill-9" fill="#797979" points="23.5 57.2856 48.029 42.8446 48.029 47.6836 23.5 62.1256"></polygon>
                <path d="M48.5293,41.9697 L23.0003,56.9997 L23.0003,62.9997 L48.5293,47.9697 L48.5293,41.9697 Z M47.5293,43.7197 L47.5293,47.3977 L24.0003,61.2507 L24.0003,57.5717 L47.5293,43.7197 Z" id="Fill-10" fill="#797979"></path>
                <polygon id="Fill-11" fill="#9B9B9B" points="12.5 54.5 19.5 54.5 19.5 10.5 12.5 10.5"></polygon>
                <path d="M12,55 L20,55 L20,10 L12,10 L12,55 Z M13,54 L19,54 L19,11 L13,11 L13,54 Z" id="Fill-12" fill="#9B9B9B"></path>
            </g>
        </g>
    </g>
</svg>