<?xml version="1.0" encoding="UTF-8"?>
<svg width="34px" height="28px" viewBox="0 0 34 28" version="1.1" xmlns="http://www.w3.org/2000/svg" xmlns:xlink="http://www.w3.org/1999/xlink">
    <!-- Generator: Sketch 42 (36781) - http://www.bohemiancoding.com/sketch -->
    <title>portraits-one-icon</title>
    <desc>Created with Sketch.</desc>
    <defs></defs>
    <g id="-" stroke="none" stroke-width="1" fill="none" fill-rule="evenodd">
        <g id="Icons-/-Portraits-/-One-/-Default" transform="translate(-27.000000, -32.000000)" fill="#797979">
            <g id="portraits-one-icon" transform="translate(27.000000, 32.000000)">
                <g id="Group-10">
                    <path d="M16.293,16 C15.592,15.855 10.317,14.52 10.317,7.286 C10.317,1.113 15.962,1.002 16.203,1 L17.801,1 C18.038,1.002 23.683,1.113 23.683,7.286 C23.683,14.564 18.426,15.858 17.71,16 L16.293,16 Z" id="Fill-2"></path>
                    <path d="M17.8008,0 L16.1988,0 C16.1988,0 9.3168,0 9.3168,7.286 C9.3168,15.867 16.1988,17 16.1988,17 L17.8008,17 C17.8008,17 24.6828,15.867 24.6828,7.286 C24.6828,0 17.8008,0 17.8008,0 M17.7908,2 C18.6188,2.014 22.6828,2.334 22.6828,7.286 C22.6828,13.498 18.5108,14.792 17.6028,15 L16.4008,15 C15.4538,14.781 11.3168,13.472 11.3168,7.286 C11.3168,2.326 15.3958,2.012 16.1988,2 L17.7908,2" id="Fill-4"></path>
                    <path d="M1.5562,27 C1.7822,24.722 2.8642,19.365 8.0342,18.998 L26.0362,19 C28.6412,19.188 30.5492,20.722 31.6362,23.557 C32.1372,24.861 32.3482,26.149 32.4382,27 L1.5562,27 Z" id="Fill-6"></path>
                    <path d="M26.0361,18 L17.1251,18 L7.9641,18 C0.4961,18.53 0.4961,28 0.4961,28 L33.5031,28 C33.5031,28 33.5031,18.53 26.0361,18 M25.9611,20 C28.1831,20.18 29.7241,21.433 30.6681,23.827 C30.9661,24.582 31.1571,25.34 31.2811,26 L2.7191,26 C2.8431,25.34 3.0341,24.581 3.3311,23.827 C4.2761,21.433 5.8161,20.18 8.0391,20 L17.1251,20 L25.9611,20" id="Fill-8"></path>
                </g>
            </g>
        </g>
    </g>
</svg>