<?xml version="1.0" encoding="UTF-8"?>
<svg width="68px" height="31px" viewBox="0 0 68 31" version="1.1" xmlns="http://www.w3.org/2000/svg" xmlns:xlink="http://www.w3.org/1999/xlink">
    <!-- Generator: Sketch 42 (36781) - http://www.bohemiancoding.com/sketch -->
    <title>portraits-three-focused-icon</title>
    <desc>Created with Sketch.</desc>
    <defs></defs>
    <g id="-" stroke="none" stroke-width="1" fill="none" fill-rule="evenodd">
        <g id="Icons-/-Portraits-/-Three-/-Focused" transform="translate(-10.000000, -29.000000)" fill="#952C21">
            <g id="portraits-three-focused-icon" transform="translate(10.000000, 29.000000)">
                <path d="M15.9072,19 C15.2062,18.854 9.9312,17.52 9.9312,10.286 C9.9312,4.071 15.5732,4 15.8132,4 L17.4152,4 C17.6522,4.002 23.2972,4.113 23.2972,10.286 C23.2972,17.564 18.0402,18.857 17.3242,19 L15.9072,19 Z" id="Fill-3"></path>
                <path d="M17.415,3 L15.813,3 C15.813,3 8.932,3 8.932,10.286 C8.932,18.866 15.813,20 15.813,20 L17.415,20 C17.415,20 24.297,18.866 24.297,10.286 C24.297,3 17.415,3 17.415,3 M17.405,5 C18.233,5.014 22.297,5.334 22.297,10.286 C22.297,16.498 18.125,17.792 17.217,18 L16.005,18 C15.174,17.814 10.932,16.558 10.932,10.286 C10.932,5.325 15.01,5.013 15.813,5 L17.405,5" id="Fill-5"></path>
                <path d="M1.1709,30 C1.3969,27.722 2.4789,22.364 7.6489,21.997 L25.6509,22 C28.2549,22.188 30.1629,23.722 31.2509,26.557 C31.7509,27.861 31.9629,29.149 32.0519,30 L1.1709,30 Z" id="Fill-7"></path>
                <path d="M25.6509,21 L16.7399,21 L7.5779,21 C0.1109,21.53 0.1109,31 0.1109,31 L33.1179,31 C33.1179,31 33.1179,21.53 25.6509,21 M25.5749,23 C27.7979,23.18 29.3379,24.433 30.2829,26.827 C30.5799,27.581 30.7719,28.34 30.8949,29 L2.3099,29 C2.7139,26.728 3.9399,23.303 7.6539,23 L16.7399,23 L25.5749,23" id="Fill-9"></path>
                <path d="M33.293,16 C32.592,15.854 27.317,14.52 27.317,7.286 C27.317,1.113 32.962,1.002 33.203,1 L34.801,1 C35.038,1.002 40.683,1.113 40.683,7.286 C40.683,14.564 35.426,15.857 34.71,16 L33.293,16 Z" id="Fill-11"></path>
                <path d="M34.8008,0 L33.1988,0 C33.1988,0 26.3168,0 26.3168,7.286 C26.3168,15.866 33.1988,17 33.1988,17 L34.8008,17 C34.8008,17 41.6828,15.866 41.6828,7.286 C41.6828,0 34.8008,0 34.8008,0 M34.7908,2 C35.6188,2.014 39.6828,2.334 39.6828,7.286 C39.6828,13.498 35.5108,14.792 34.6028,15 L33.4008,15 C32.4538,14.781 28.3168,13.472 28.3168,7.286 C28.3168,2.325 32.3958,2.013 33.1988,2 L34.7908,2" id="Fill-13"></path>
                <path d="M33.7515,27 C32.7215,22.193 29.8295,19.294 25.7215,19.003 L24.9725,19.002 C24.9935,19.001 25.0135,18.999 25.0345,18.997 L43.0365,19 L42.3495,19 C38.1745,19.294 35.2785,22.193 34.2485,27 L33.7515,27 Z" id="Fill-15"></path>
                <path d="M43.0361,18 L34.1251,18 L24.9641,18 C22.9671,18.142 21.5171,18.932 20.4451,20 L25.6511,20 C30.9211,20.374 32.4661,25.192 32.9221,28 L35.0781,28 C35.5341,25.192 37.0791,20.374 42.3491,20 L47.5551,20 C46.4831,18.932 45.0331,18.142 43.0361,18 M37.0421,20 C35.7461,21.064 34.7171,22.527 34.0001,24.343 C33.2831,22.527 32.2541,21.064 30.9571,20 L34.1251,20 L37.0421,20" id="Fill-17"></path>
                <path d="M50.6787,19 C49.9777,18.854 44.7027,17.52 44.7027,10.286 C44.7027,4.113 50.3477,4.002 50.5887,4 L52.1867,4 C52.4237,4.002 58.0687,4.113 58.0687,10.286 C58.0687,17.509 52.8087,18.851 52.0917,19 L50.6787,19 Z" id="Fill-21"></path>
                <path d="M52.1865,3 L50.5845,3 C50.5845,3 43.7025,3 43.7025,10.286 C43.7025,18.866 50.5845,20 50.5845,20 L52.1865,20 C52.1865,20 59.0685,18.866 59.0685,10.286 C59.0685,3 52.1865,3 52.1865,3 M52.1765,5 C53.0035,5.014 57.0685,5.334 57.0685,10.286 C57.0685,16.498 52.8965,17.792 51.9885,18 L50.7765,18 C49.9455,17.814 45.7025,16.558 45.7025,10.286 C45.7025,5.325 49.7815,5.013 50.5845,5 L52.1765,5" id="Fill-22"></path>
                <path d="M35.9419,30 C36.1679,27.722 37.2499,22.364 42.4199,21.997 L60.4219,22 C63.0259,22.188 64.9339,23.722 66.0219,26.557 C66.5219,27.861 66.7339,29.149 66.8229,30 L35.9419,30 Z" id="Fill-23"></path>
                <path d="M60.4219,21 L51.5109,21 L42.3489,21 C34.8819,21.53 34.8819,31 34.8819,31 L67.8889,31 C67.8889,31 67.8889,21.53 60.4219,21 M60.3469,23 C62.5689,23.18 64.1099,24.433 65.0539,26.827 C65.3519,27.581 65.5429,28.34 65.6669,29 L37.0809,29 C37.4859,26.728 38.7119,23.303 42.4249,23 L51.5109,23 L60.3469,23" id="Fill-24"></path>
            </g>
        </g>
    </g>
</svg>