<?xml version="1.0" encoding="UTF-8"?>
<svg width="68px" height="31px" viewBox="0 0 68 31" version="1.1" xmlns="http://www.w3.org/2000/svg" xmlns:xlink="http://www.w3.org/1999/xlink">
    <!-- Generator: Sketch 42 (36781) - http://www.bohemiancoding.com/sketch -->
    <title>portraits-three-icon</title>
    <desc>Created with Sketch.</desc>
    <defs>
        <polygon id="path-1" points="1.35525272e-20 0 1.35525272e-20 10 16.5034 10 33.0068 10 33.0068 0 0 0"></polygon>
        <polygon id="path-3" points="0 31 67.778 31 67.778 0 0 0"></polygon>
    </defs>
    <g id="-" stroke="none" stroke-width="1" fill="none" fill-rule="evenodd">
        <g id="Icons-/-Portraits-/-Three-/-Default" transform="translate(-10.000000, -29.000000)">
            <g id="portraits-three-icon" transform="translate(10.000000, 29.000000)">
                <path d="M15.7961,19 C15.0951,18.855 9.8201,17.52 9.8201,10.286 C9.8201,4.071 15.4621,4 15.7021,4 L17.3041,4 C17.5411,4.002 23.1861,4.113 23.1861,10.286 C23.1861,17.564 17.9291,18.858 17.2131,19 L15.7961,19 Z" id="Fill-1" fill="#797979"></path>
                <path d="M17.3039,3 L15.7019,3 C15.7019,3 8.8209,3 8.8209,10.286 C8.8209,18.867 15.7019,20 15.7019,20 L17.3039,20 C17.3039,20 24.1859,18.867 24.1859,10.286 C24.1859,3 17.3039,3 17.3039,3 M17.2939,5 C18.1219,5.014 22.1859,5.334 22.1859,10.286 C22.1859,16.498 18.0139,17.792 17.1059,18 L15.9039,18 C14.9569,17.781 10.8209,16.472 10.8209,10.286 C10.8209,5.326 14.8989,5.012 15.7019,5 L17.2939,5" id="Fill-3" fill="#797979"></path>
                <path d="M1.0598,30 C1.2858,27.722 2.3678,22.365 7.5378,21.998 L25.5398,22 C28.1438,22.188 30.0518,23.722 31.1398,26.557 C31.6398,27.861 31.8518,29.149 31.9408,30 L1.0598,30 Z" id="Fill-5" fill="#797979"></path>
                <g id="Group-9" transform="translate(0.000000, 21.000000)">
                    <mask id="mask-2" fill="white">
                        <use xlink:href="#path-1"></use>
                    </mask>
                    <g id="Clip-8"></g>
                    <path d="M25.5398,0 L16.6288,0 L7.4668,0 C-0.0002,0.53 -0.0002,10 -0.0002,10 L33.0068,10 C33.0068,10 33.0068,0.53 25.5398,0 M25.4638,2 C27.6868,2.18 29.2268,3.433 30.1718,5.827 C30.4688,6.582 30.6608,7.34 30.7838,8 L2.1988,8 C2.6028,5.728 3.8288,2.303 7.5428,2 L16.6288,2 L25.4638,2" id="Fill-7" fill="#797979" mask="url(#mask-2)"></path>
                </g>
                <path d="M33.1819,16 C32.4809,15.855 27.2059,14.52 27.2059,7.286 C27.2059,1.113 32.8509,1.002 33.0919,1 L34.6899,1 C34.9269,1.002 40.5719,1.113 40.5719,7.286 C40.5719,14.564 35.3149,15.858 34.5989,16 L33.1819,16 Z" id="Fill-10" fill="#797979"></path>
                <path d="M34.6897,0 L33.0877,0 C33.0877,0 26.2057,0 26.2057,7.286 C26.2057,15.867 33.0877,17 33.0877,17 L34.6897,17 C34.6897,17 41.5717,15.867 41.5717,7.286 C41.5717,0 34.6897,0 34.6897,0 M34.6797,2 C35.5077,2.014 39.5717,2.334 39.5717,7.286 C39.5717,13.498 35.3997,14.792 34.4917,15 L33.2797,15 C32.4487,14.814 28.2057,13.558 28.2057,7.286 C28.2057,2.326 32.2847,2.012 33.0877,2 L34.6797,2" id="Fill-12" fill="#797979"></path>
                <path d="M33.6408,27 C32.6108,22.193 29.7178,19.294 25.6108,19.002 L24.8608,19.002 C24.8818,19 24.9018,18.999 24.9228,18.998 L42.9248,19 L42.2378,19 C38.0638,19.294 35.1668,22.193 34.1378,27 L33.6408,27 Z" id="Fill-14" fill="#797979"></path>
                <path d="M42.925,18 L34.014,18 L24.853,18 C22.856,18.142 21.406,18.932 20.334,20 L25.54,20 C30.81,20.375 32.355,25.192 32.811,28 L34.967,28 C35.423,25.192 36.968,20.375 42.238,20 L47.444,20 C46.372,18.932 44.922,18.142 42.925,18 M36.931,20 C35.635,21.064 34.606,22.528 33.889,24.342 C33.172,22.528 32.143,21.064 30.846,20 L34.014,20 L36.931,20" id="Fill-16" fill="#797979"></path>
                <mask id="mask-4" fill="white">
                    <use xlink:href="#path-3"></use>
                </mask>
                <g id="Clip-19"></g>
                <path d="M50.5676,19 C49.8666,18.855 44.5916,17.52 44.5916,10.286 C44.5916,4.113 50.2366,4.002 50.4776,4 L52.0756,4 C52.3126,4.002 57.9576,4.113 57.9576,10.286 C57.9576,17.564 52.7006,18.858 51.9846,19 L50.5676,19 Z" id="Fill-21" fill="#797979" mask="url(#mask-4)"></path>
                <path d="M52.0754,3 L50.4734,3 C50.4734,3 43.5914,3 43.5914,10.286 C43.5914,18.867 50.4734,20 50.4734,20 L52.0754,20 C52.0754,20 58.9574,18.867 58.9574,10.286 C58.9574,3 52.0754,3 52.0754,3 M52.0654,5 C52.8924,5.014 56.9574,5.334 56.9574,10.286 C56.9574,16.498 52.7854,17.792 51.8774,18 L50.6754,18 C49.7284,17.781 45.5914,16.472 45.5914,10.286 C45.5914,5.326 49.6704,5.012 50.4734,5 L52.0654,5" id="Fill-22" fill="#797979" mask="url(#mask-4)"></path>
                <path d="M35.8308,30 C36.0568,27.722 37.1388,22.365 42.3088,21.998 L60.3108,22 C62.9148,22.188 64.8228,23.722 65.9108,26.557 C66.4108,27.861 66.6228,29.149 66.7118,30 L35.8308,30 Z" id="Fill-23" fill="#797979" mask="url(#mask-4)"></path>
                <path d="M60.3108,21 L51.3998,21 L42.2378,21 C34.7708,21.53 34.7708,31 34.7708,31 L67.7778,31 C67.7778,31 67.7778,21.53 60.3108,21 M60.2358,23 C62.4578,23.18 63.9988,24.433 64.9428,26.827 C65.2408,27.582 65.4318,28.34 65.5558,29 L36.9698,29 C37.3748,26.728 38.6008,23.303 42.3138,23 L51.3998,23 L60.2358,23" id="Fill-24" fill="#797979" mask="url(#mask-4)"></path>
            </g>
        </g>
    </g>
</svg>