<?xml version="1.0" encoding="UTF-8"?>
<svg width="68px" height="28px" viewBox="0 0 68 28" version="1.1" xmlns="http://www.w3.org/2000/svg" xmlns:xlink="http://www.w3.org/1999/xlink">
    <!-- Generator: Sketch 42 (36781) - http://www.bohemiancoding.com/sketch -->
    <title>portraits-two-icon</title>
    <desc>Created with Sketch.</desc>
    <defs></defs>
    <g id="-" stroke="none" stroke-width="1" fill="none" fill-rule="evenodd">
        <g id="Icons-/-Portraits-/-Two-/-Default" transform="translate(-10.000000, -32.000000)" fill="#797979">
            <g id="portraits-two-icon" transform="translate(10.000000, 32.000000)">
                <g id="Group-18">
                    <path d="M15.8123597,16 C15.1305551,15.855 10,14.52 10,7.286 C10,1.071 15.4875056,1 15.7209337,1 L17.2790663,1 C17.5095765,1.002 23,1.113 23,7.286 C23,14.564 17.886952,15.858 17.1905581,16 L15.8123597,16 Z" id="Fill-2"></path>
                    <path d="M17.2814839,-7.10542736e-15 L15.7175399,-7.10542736e-15 C15.7175399,-7.10542736e-15 9,-7.10542736e-15 9,7.286 C9,15.867 15.7175399,17 15.7175399,17 L17.2814839,17 C17.2814839,17 24,15.867 24,7.286 C24,-7.10542736e-15 17.2814839,-7.10542736e-15 17.2814839,-7.10542736e-15 M17.2651122,2 C18.06652,2.014 22,2.334 22,7.286 C22,13.498 17.9619886,14.792 17.08315,15 L15.9197536,15 C15.0031676,14.781 11,13.472 11,7.286 C11,2.326 14.9470304,2.012 15.7242411,2 L17.2651122,2" id="Fill-4"></path>
                    <path d="M1,27 C1.22687089,24.7225694 2.31304038,19.3669083 7.50296299,19 L25.5743337,19.0019995 C28.1883683,19.1899525 30.1037207,20.7235691 31.1959133,23.5578605 C31.6978401,24.8615346 31.910657,26.1492127 32,27 L1,27 Z" id="Fill-6"></path>
                    <path d="M25.5345836,18 L16.6254734,18 L7.46541643,18 C3.26849658e-13,18.53 3.26849658e-13,28 3.26849658e-13,28 L33,28 C33,28 33,18.53 25.5345836,18 M25.6027637,20 C27.8580374,20.18 29.4203953,21.433 30.3791149,23.827 C30.6804268,24.582 30.8752143,25.34 31,26 L2,26 C2.40986531,23.728 3.65366451,20.303 7.42158475,20 L16.6394962,20 L25.6027637,20" id="Fill-8"></path>
                    <path d="M50.8123597,16 C50.1305551,15.855 45,14.52 45,7.286 C45,1.113 50.4904235,1.002 50.7248242,1 L52.2790663,1 C52.5095765,1.002 58,1.113 58,7.286 C58,14.564 52.886952,15.858 52.1905581,16 L50.8123597,16 Z" id="Fill-10"></path>
                    <path d="M52.2819211,-7.10542736e-15 L50.7180789,-7.10542736e-15 C50.7180789,-7.10542736e-15 44,-7.10542736e-15 44,7.286 C44,15.867 50.7180789,17 50.7180789,17 L52.2819211,17 C52.2819211,17 59,15.867 59,7.286 C59,-7.10542736e-15 52.2819211,-7.10542736e-15 52.2819211,-7.10542736e-15 M52.2655288,2 C53.0658983,2.014 57,2.334 57,7.286 C57,13.498 52.9623438,14.792 52.0835826,15 L50.9202886,15 C50.0037832,14.781 46,13.472 46,7.286 C46,2.326 49.9476509,2.012 50.7247932,2 L52.2655288,2" id="Fill-12"></path>
                    <path d="M36,27 C36.2268709,24.7225694 37.3130404,19.3669083 42.502963,19 L60.5743337,19.0019995 C63.1883683,19.1899525 65.1037207,20.7235691 66.1959133,23.5578605 C66.6978401,24.8615346 66.910657,26.1492127 67,27 L36,27 Z" id="Fill-14"></path>
                    <path d="M60.5345836,18 L51.6254734,18 L42.4654164,18 C35,18.53 35,28 35,28 L68,28 C68,28 68,18.53 60.5345836,18 M60.6029525,20 C62.8571329,20.18 64.4204506,21.433 65.3781222,23.827 C65.680438,24.582 65.8742042,25.34 66,26 L37,26 C37.4108655,23.728 38.6546211,20.303 42.4213951,20 L51.6389841,20 L60.6029525,20" id="Fill-16"></path>
                </g>
            </g>
        </g>
    </g>
</svg>