<?xml version="1.0" encoding="UTF-8"?>
<svg width="68px" height="28px" viewBox="0 0 68 28" version="1.1" xmlns="http://www.w3.org/2000/svg" xmlns:xlink="http://www.w3.org/1999/xlink">
    <!-- Generator: Sketch 42 (36781) - http://www.bohemiancoding.com/sketch -->
    <title>portraits-two-focused-icon</title>
    <desc>Created with Sketch.</desc>
    <defs></defs>
    <g id="-" stroke="none" stroke-width="1" fill="none" fill-rule="evenodd">
        <g id="Icons-/-Portraits-/-Two-/-Focused" transform="translate(-10.000000, -32.000000)" fill="#952C21">
            <g id="portraits-two-focused-icon" transform="translate(1.000000, 1.000000)">
                <g id="Group-19" transform="translate(9.000000, 31.000000)">
                    <path d="M15.9072,16 C15.2062,15.854 9.9312,14.52 9.9312,7.286 C9.9312,1.071 15.5732,1 15.8132,1 L17.4152,1 C17.6522,1.002 23.2972,1.113 23.2972,7.286 C23.2972,14.564 18.0402,15.857 17.3242,16 L15.9072,16 Z" id="Fill-3"></path>
                    <path d="M17.415,0 L15.813,0 C15.813,0 8.932,0 8.932,7.286 C8.932,15.866 15.813,17 15.813,17 L17.415,17 C17.415,17 24.297,15.866 24.297,7.286 C24.297,0 17.415,0 17.415,0 M17.405,2 C18.233,2.014 22.297,2.334 22.297,7.286 C22.297,13.498 18.125,14.792 17.217,15 L16.005,15 C15.174,14.814 10.932,13.558 10.932,7.286 C10.932,2.325 15.01,2.013 15.813,2 L17.405,2" id="Fill-5"></path>
                    <path d="M1.1709,27 C1.3969,24.722 2.4789,19.364 7.6489,18.997 L25.6509,19 C28.2549,19.188 30.1629,20.722 31.2509,23.557 C31.7509,24.861 31.9629,26.149 32.0519,27 L1.1709,27 Z" id="Fill-7"></path>
                    <path d="M25.6509,18 L16.7399,18 L7.5779,18 C0.1109,18.53 0.1109,28 0.1109,28 L33.1179,28 C33.1179,28 33.1179,18.53 25.6509,18 M25.5749,20 C27.7979,20.18 29.3379,21.433 30.2829,23.827 C30.5799,24.581 30.7719,25.34 30.8949,26 L2.3099,26 C2.7139,23.728 3.9399,20.303 7.6539,20 L16.7399,20 L25.5749,20" id="Fill-9"></path>
                    <path d="M50.6787,16 C49.9777,15.854 44.7027,14.52 44.7027,7.286 C44.7027,1.113 50.3477,1.002 50.5887,1 L52.1867,1 C52.4237,1.002 58.0687,1.113 58.0687,7.286 C58.0687,14.509 52.8087,15.851 52.0917,16 L50.6787,16 Z" id="Fill-11"></path>
                    <path d="M52.1865,0 L50.5845,0 C50.5845,0 43.7025,0 43.7025,7.286 C43.7025,15.866 50.5845,17 50.5845,17 L52.1865,17 C52.1865,17 59.0685,15.866 59.0685,7.286 C59.0685,0 52.1865,0 52.1865,0 M52.1765,2 C53.0035,2.014 57.0685,2.334 57.0685,7.286 C57.0685,13.498 52.8965,14.792 51.9885,15 L50.7765,15 C49.9455,14.814 45.7025,13.558 45.7025,7.286 C45.7025,2.325 49.7815,2.013 50.5845,2 L52.1765,2" id="Fill-13"></path>
                    <path d="M35.9419,27 C36.1679,24.722 37.2499,19.364 42.4199,18.997 L60.4219,19 C63.0259,19.188 64.9339,20.722 66.0219,23.557 C66.5219,24.861 66.7339,26.149 66.8229,27 L35.9419,27 Z" id="Fill-15"></path>
                    <path d="M60.4219,18 L51.5109,18 L42.3489,18 C34.8819,18.53 34.8819,28 34.8819,28 L67.8889,28 C67.8889,28 67.8889,18.53 60.4219,18 M60.3469,20 C62.5689,20.18 64.1099,21.433 65.0539,23.827 C65.3519,24.581 65.5429,25.34 65.6669,26 L37.0809,26 C37.4859,23.728 38.7119,20.303 42.4249,20 L51.5109,20 L60.3469,20" id="Fill-17"></path>
                </g>
            </g>
        </g>
    </g>
</svg>