<?xml version="1.0" encoding="UTF-8"?>
<svg width="28px" height="28px" viewBox="0 0 28 28" version="1.1" xmlns="http://www.w3.org/2000/svg" xmlns:xlink="http://www.w3.org/1999/xlink">
    <!-- Generator: Sketch 42 (36781) - http://www.bohemiancoding.com/sketch -->
    <title>slider-arrow-left</title>
    <desc>Created with Sketch.</desc>
    <defs></defs>
    <g id="-" stroke="none" stroke-width="1" fill="none" fill-rule="evenodd" opacity="0.5">
        <g id="Slider-/-2" transform="translate(-16.000000, -118.000000)">
            <g id="slider-arrow-left" transform="translate(16.000000, 118.000000)">
                <path d="M14.4807,7.2061 C14.3477,7.2061 14.2157,7.2591 14.1177,7.3621 L8.4557,13.3491 C8.3687,13.4401 8.3197,13.5621 8.3187,13.6891 L8.3047,15.7361 C8.3037,15.8621 8.3517,15.9841 8.4367,16.0781 L14.0987,22.2261 C14.1887,22.3231 14.3137,22.3811 14.4467,22.3871 L14.4667,22.3871 C14.5917,22.3871 14.7127,22.3401 14.8057,22.2551 L17.0127,20.2221 C17.2157,20.0341 17.2287,19.7181 17.0427,19.5151 L12.6437,14.7411 L17.0237,10.1101 C17.1147,10.0141 17.1647,9.8851 17.1607,9.7531 C17.1567,9.6201 17.0997,9.4941 17.0037,9.4031 L14.8247,7.3431 C14.7277,7.2511 14.6037,7.2061 14.4807,7.2061 M14.2527,27.5071 C6.9457,27.5071 1.0007,21.5611 1.0007,14.2531 C1.0007,6.9451 6.9457,1.0001 14.2527,1.0001 C21.5617,1.0001 27.5067,6.9451 27.5067,14.2531 C27.5067,21.5611 21.5617,27.5071 14.2527,27.5071" id="Fill-1" fill="#FFFFFF"></path>
                <path d="M14.467,21.8867 L8.805,15.7397 L8.819,13.6927 L14.481,7.7057 L16.66,9.7667 L11.96,14.7367 L16.674,19.8537 L14.467,21.8867 Z M14.253,0.4997 C6.657,0.4997 0.5,6.6577 0.5,14.2527 C0.5,21.8487 6.657,28.0067 14.253,28.0067 C21.849,28.0067 28.007,21.8487 28.007,14.2527 C28.007,6.6577 21.849,0.4997 14.253,0.4997 L14.253,0.4997 Z M14.467,22.8867 C14.718,22.8867 14.959,22.7927 15.145,22.6217 L17.352,20.5887 C17.758,20.2147 17.783,19.5817 17.409,19.1757 L13.328,14.7447 L17.387,10.4537 C17.57,10.2607 17.667,10.0037 17.66,9.7387 C17.653,9.4737 17.54,9.2217 17.347,9.0397 L15.167,6.9797 C14.974,6.7967 14.728,6.7057 14.481,6.7057 C14.216,6.7057 13.95,6.8107 13.754,7.0187 L8.092,13.0047 C7.918,13.1897 7.821,13.4327 7.819,13.6857 L7.805,15.7327 C7.803,15.9867 7.898,16.2307 8.07,16.4167 L13.732,22.5647 C13.911,22.7587 14.161,22.8747 14.426,22.8857 C14.44,22.8867 14.453,22.8867 14.467,22.8867 L14.467,22.8867 Z M14.253,1.4997 C21.285,1.4997 27.007,7.2207 27.007,14.2527 C27.007,21.2857 21.285,27.0067 14.253,27.0067 C7.221,27.0067 1.5,21.2857 1.5,14.2527 C1.5,7.2207 7.221,1.4997 14.253,1.4997 L14.253,1.4997 Z" id="Fill-3" fill="#797979"></path>
            </g>
        </g>
    </g>
</svg>