<?xml version="1.0" encoding="UTF-8"?>
<svg width="16px" height="13px" viewBox="0 0 16 13" version="1.1" xmlns="http://www.w3.org/2000/svg" xmlns:xlink="http://www.w3.org/1999/xlink">
    <!-- Generator: Sketch 42 (36781) - http://www.bohemiancoding.com/sketch -->
    <title>truck</title>
    <desc>Created with Sketch.</desc>
    <defs></defs>
    <g id="-" stroke="none" stroke-width="1" fill="none" fill-rule="evenodd">
        <g id="Icons-/-Transit-/-Default" transform="translate(0.000000, -1.000000)" stroke="#B17F4A">
            <g id="truck" transform="translate(0.000000, 1.000000)">
                <path d="M10.6172,10.5 L8.5312,10.5 L8.5312,2.5 L9.5092,2.5 C10.0262,2.5 10.5222,2.758 10.8832,3.214 L12.5722,5.357 C12.9292,5.809 13.3322,6.201 13.7732,6.523 L15.0662,7.469 C15.2192,7.581 15.3312,7.757 15.3822,7.964 L15.4822,8.374 C15.5522,8.657 15.5472,8.958 15.4702,9.238 L15.3562,9.644 C15.2602,9.994 15.0192,10.257 14.7242,10.336 L14.1102,10.5" id="Stroke-1"></path>
                <polyline id="Stroke-3" points="3.2617 10.5 0.4997 10.5 0.4997 0.5 8.6507 0.5 8.6507 10.5 5.7827 10.5"></polyline>
                <path d="M9.7363,4.1563 L9.8483,6.0783 C9.8583,6.2533 9.9703,6.3923 10.1133,6.4073 L12.5003,6.6583 C12.7033,6.6803 12.8783,6.4843 12.8783,6.2353 L11.4173,4.2053 C11.3413,4.1013 11.2363,4.0373 11.1243,4.0293 L9.9113,3.9393 C9.8113,3.9323 9.7283,4.0343 9.7363,4.1563 Z" id="Stroke-5"></path>
                <path d="M2.5312,11 C2.5312,10.171 3.2032,9.5 4.0312,9.5 C4.8592,9.5 5.5312,10.171 5.5312,11 C5.5312,11.829 4.8592,12.5 4.0312,12.5 C3.2032,12.5 2.5312,11.829 2.5312,11 Z" id="Stroke-7"></path>
                <path d="M10.5312,11 C10.5312,10.824 10.5612,10.655 10.6172,10.498 C10.8232,9.917 11.3792,9.5 12.0312,9.5 C12.6832,9.5 13.2382,9.916 13.4452,10.497 C13.5012,10.654 13.5312,10.824 13.5312,11 C13.5312,11.829 12.8592,12.5 12.0312,12.5 C11.2032,12.5 10.5312,11.829 10.5312,11 Z" id="Stroke-9"></path>
                <path d="M0.5,7.5 L8.531,7.5" id="Stroke-11"></path>
            </g>
        </g>
    </g>
</svg>